<svg width="65" height="19" viewBox="0 0 65 19" fill="none" xmlns="http://www.w3.org/2000/svg">
<path d="M3.2 10.6V13.78H13.18V16H0.54V3.06H13.16V5.28H3.2V8.5H11.36V10.6H3.2ZM29.0311 13.36L28.1911 13.7V3.06H30.8511V16H28.1911L17.7311 5.78L18.5711 5.44V16H15.9111V3.06H18.5711L29.0311 13.36ZM41.3784 16.26C40.1784 16.26 39.0918 16.12 38.1184 15.84C37.1584 15.56 36.3251 15.14 35.6184 14.58C34.9251 14.02 34.3918 13.3267 34.0184 12.5C33.6451 11.6733 33.4584 10.72 33.4584 9.64C33.4584 8.54667 33.6518 7.58 34.0384 6.74C34.4384 5.88667 34.9984 5.16667 35.7184 4.58C36.4518 3.99333 37.3184 3.55333 38.3184 3.26C39.3318 2.95333 40.4518 2.8 41.6784 2.8C43.1318 2.8 44.3851 3.00667 45.4384 3.42C46.4918 3.82 47.3184 4.38667 47.9184 5.12C48.5318 5.85333 48.8784 6.72667 48.9584 7.74H46.3984C46.2251 7.20667 45.9384 6.74667 45.5384 6.36C45.1518 5.96 44.6384 5.65333 43.9984 5.44C43.3584 5.21333 42.5851 5.1 41.6784 5.1C40.5184 5.1 39.5251 5.28667 38.6984 5.66C37.8851 6.03333 37.2651 6.56 36.8384 7.24C36.4118 7.92 36.1984 8.72 36.1984 9.64C36.1984 10.5333 36.3851 11.3067 36.7584 11.96C37.1318 12.6 37.7051 13.0933 38.4784 13.44C39.2651 13.7867 40.2651 13.96 41.4784 13.96C42.4118 13.96 43.2318 13.84 43.9384 13.6C44.6584 13.3467 45.2584 13.0133 45.7384 12.6C46.2184 12.1733 46.5584 11.7 46.7584 11.18L47.7984 10.8C47.6251 12.52 46.9718 13.86 45.8384 14.82C44.7184 15.78 43.2318 16.26 41.3784 16.26ZM47.1184 16C47.1184 15.5867 47.1451 15.1133 47.1984 14.58C47.2518 14.0333 47.3184 13.4867 47.3984 12.94C47.4784 12.38 47.5518 11.8667 47.6184 11.4H41.6984V9.7H49.4184V16H47.1184Z" fill="#808692"/>
<path d="M62.3039 0.94L64.4039 1.7L58.3039 18.4L56.2239 17.64L62.3039 0.94Z" fill="#4E525A"/>
</svg>
