<svg width="121" height="15" viewBox="0 0 121 15" fill="none" xmlns="http://www.w3.org/2000/svg">
<path d="M13.16 1.06V3.28H3.2V6.76H11.36V8.84H3.2V14H0.54V1.06H13.16ZM18.0242 8.6V11.78H28.0042V14H15.3642V1.06H27.9842V3.28H18.0242V6.5H26.1842V8.6H18.0242ZM32.7553 11.18V8.96H41.3153V11.18H32.7553ZM29.5353 14L35.6153 1.06H38.4953L44.6353 14H41.7353L36.4153 2.34H37.6953L32.4153 14H29.5353ZM43.7359 1.06H57.3759V3.28H43.7359V1.06ZM49.2359 3H51.8959V14H49.2359V3ZM71.1895 8.28V1.06H73.8495V8.56C73.8495 9.41333 73.7229 10.16 73.4695 10.8C73.2295 11.44 72.8829 11.98 72.4295 12.42C71.9762 12.86 71.4429 13.22 70.8295 13.5C70.2295 13.7667 69.5695 13.96 68.8495 14.08C68.1429 14.2 67.3962 14.26 66.6095 14.26C65.7962 14.26 65.0229 14.2 64.2895 14.08C63.5562 13.96 62.8829 13.7667 62.2695 13.5C61.6695 13.22 61.1495 12.86 60.7095 12.42C60.2695 11.98 59.9229 11.44 59.6695 10.8C59.4295 10.16 59.3095 9.41333 59.3095 8.56V1.06H61.9695V8.28C61.9695 9.29333 62.1695 10.0667 62.5695 10.6C62.9695 11.12 63.5162 11.48 64.2095 11.68C64.9162 11.8667 65.7162 11.96 66.6095 11.96C67.4762 11.96 68.2495 11.8667 68.9295 11.68C69.6229 11.48 70.1695 11.12 70.5695 10.6C70.9829 10.0667 71.1895 9.29333 71.1895 8.28ZM76.9267 14V1.06H85.7067C86.7067 1.06 87.5734 1.2 88.3067 1.48C89.0534 1.74667 89.6334 2.17333 90.0467 2.76C90.4601 3.33333 90.6667 4.07333 90.6667 4.98C90.6667 5.59333 90.5601 6.11333 90.3467 6.54C90.1334 6.96667 89.8334 7.31333 89.4467 7.58C89.0734 7.84667 88.6401 8.05333 88.1467 8.2C87.6534 8.33333 87.1267 8.42 86.5667 8.46L86.2867 8.3C87.2201 8.31333 87.9867 8.39333 88.5867 8.54C89.1867 8.67333 89.6334 8.92667 89.9267 9.3C90.2334 9.66 90.3867 10.2 90.3867 10.92V14H87.7267V11.1C87.7267 10.6067 87.6401 10.2267 87.4667 9.96C87.2934 9.68 86.9801 9.48667 86.5267 9.38C86.0867 9.27333 85.4467 9.22 84.6067 9.22H79.5867V14H76.9267ZM79.5867 7.14H85.7067C86.4534 7.14 87.0201 6.96 87.4067 6.6C87.8067 6.24 88.0067 5.75333 88.0067 5.14C88.0067 4.55333 87.8067 4.10667 87.4067 3.8C87.0201 3.49333 86.4534 3.34 85.7067 3.34H79.5867V7.14ZM96.1102 8.6V11.78H106.09V14H93.4502V1.06H106.07V3.28H96.1102V6.5H104.27V8.6H96.1102ZM107.961 9.64H110.661C110.715 10.0933 110.921 10.5067 111.281 10.88C111.655 11.24 112.141 11.5267 112.741 11.74C113.341 11.94 114.015 12.04 114.761 12.04C115.441 12.04 116.001 11.9667 116.441 11.82C116.881 11.6733 117.208 11.4667 117.421 11.2C117.635 10.9333 117.741 10.6133 117.741 10.24C117.741 9.88 117.608 9.60667 117.341 9.42C117.075 9.22 116.655 9.06 116.081 8.94C115.508 8.80667 114.755 8.67333 113.821 8.54C113.088 8.43333 112.395 8.28667 111.741 8.1C111.088 7.9 110.508 7.64667 110.001 7.34C109.508 7.03333 109.115 6.66 108.821 6.22C108.541 5.76667 108.401 5.23333 108.401 4.62C108.401 3.86 108.615 3.19333 109.041 2.62C109.481 2.04667 110.128 1.6 110.981 1.28C111.835 0.959999 112.881 0.799999 114.121 0.799999C115.988 0.799999 117.421 1.2 118.421 2C119.435 2.78667 119.928 3.87333 119.901 5.26H117.301C117.248 4.47333 116.915 3.90667 116.301 3.56C115.701 3.21333 114.941 3.04 114.021 3.04C113.168 3.04 112.461 3.16667 111.901 3.42C111.355 3.67333 111.081 4.10667 111.081 4.72C111.081 4.96 111.148 5.17333 111.281 5.36C111.415 5.53333 111.641 5.68667 111.961 5.82C112.281 5.95333 112.715 6.08 113.261 6.2C113.808 6.32 114.488 6.44 115.301 6.56C116.061 6.66667 116.748 6.81333 117.361 7C117.988 7.17333 118.521 7.40667 118.961 7.7C119.415 7.98 119.761 8.34 120.001 8.78C120.241 9.22 120.361 9.76 120.361 10.4C120.361 11.1867 120.155 11.8733 119.741 12.46C119.341 13.0333 118.715 13.48 117.861 13.8C117.021 14.12 115.928 14.28 114.581 14.28C113.621 14.28 112.775 14.18 112.041 13.98C111.308 13.7667 110.675 13.4867 110.141 13.14C109.608 12.7933 109.175 12.4133 108.841 12C108.508 11.5867 108.268 11.1733 108.121 10.76C107.988 10.3467 107.935 9.97333 107.961 9.64Z" fill="white"/>
</svg>
