<svg width="72" height="15" viewBox="0 0 72 15" fill="none" xmlns="http://www.w3.org/2000/svg">
<path d="M2.88 6.4H13.14V8.62H2.88V6.4ZM12.7 1.06H15.36V14H12.7V1.06ZM0.54 1.06H3.2V14H0.54V1.06ZM26.1306 14.26C24.4106 14.26 22.9373 13.9933 21.7106 13.46C20.4973 12.9133 19.564 12.14 18.9106 11.14C18.2706 10.14 17.9506 8.94 17.9506 7.54C17.9506 6.12667 18.2706 4.92 18.9106 3.92C19.564 2.92 20.4973 2.15333 21.7106 1.62C22.9373 1.07333 24.4106 0.799999 26.1306 0.799999C27.864 0.799999 29.3373 1.07333 30.5506 1.62C31.764 2.15333 32.6906 2.92 33.3306 3.92C33.984 4.92 34.3106 6.12667 34.3106 7.54C34.3106 8.94 33.984 10.14 33.3306 11.14C32.6906 12.14 31.764 12.9133 30.5506 13.46C29.3373 13.9933 27.864 14.26 26.1306 14.26ZM26.1306 11.96C27.1973 11.96 28.1306 11.8 28.9306 11.48C29.744 11.16 30.3773 10.6733 30.8306 10.02C31.2973 9.36667 31.5306 8.54 31.5306 7.54C31.5306 6.54 31.2973 5.71333 30.8306 5.06C30.3773 4.40667 29.744 3.92 28.9306 3.6C28.1306 3.26667 27.1973 3.1 26.1306 3.1C25.0773 3.1 24.1373 3.26667 23.3106 3.6C22.484 3.92 21.8373 4.40667 21.3706 5.06C20.904 5.71333 20.6706 6.54 20.6706 7.54C20.6706 8.54 20.904 9.36667 21.3706 10.02C21.8373 10.6733 22.484 11.16 23.3106 11.48C24.1373 11.8 25.0773 11.96 26.1306 11.96ZM46.9672 12.68H45.7072L53.1472 1.06H55.8072V14H53.1472V4.6L53.7872 4.78L47.8472 14H44.8672L38.9272 4.82L39.5672 4.64V14H36.9072V1.06H39.5672L46.9672 12.68ZM61.5398 8.6V11.78H71.5198V14H58.8798V1.06H71.4998V3.28H61.5398V6.5H69.6998V8.6H61.5398Z" fill="white"/>
</svg>
