<svg width="174" height="13" viewBox="0 0 174 13" fill="none" xmlns="http://www.w3.org/2000/svg">
<path d="M2.84 8.8V6.68H8.76C9.46667 6.68 10.0267 6.49333 10.44 6.12C10.8533 5.73333 11.06 5.2 11.06 4.52C11.06 3.81333 10.8533 3.27333 10.44 2.9C10.0267 2.52667 9.46667 2.34 8.76 2.34H3.16V13H0.5V0.0599997H8.52C9.24 0.0599997 9.91333 0.146666 10.54 0.32C11.18 0.493333 11.7333 0.759999 12.2 1.12C12.68 1.48 13.0533 1.94 13.32 2.5C13.5867 3.06 13.72 3.73333 13.72 4.52C13.72 5.29333 13.5867 5.95333 13.32 6.5C13.0533 7.04667 12.68 7.49333 12.2 7.84C11.7333 8.17333 11.18 8.42 10.54 8.58C9.91333 8.72667 9.24 8.8 8.52 8.8H2.84ZM18.8836 0.0599997V10.78H27.4836V13H16.2236V0.0599997H18.8836ZM31.9741 10.18V7.96H40.5341V10.18H31.9741ZM28.7541 13L34.8341 0.0599997H37.7141L43.8541 13H40.9541L35.6341 1.34H36.9141L31.6341 13H28.7541ZM56.7403 0.0599997L51.0603 8.92V13H48.3803V8.92L42.7003 0.0599997H45.7803L50.5603 7.8H48.9603L53.6603 0.0599997H56.7403ZM61.5484 0.0599997H75.1884V2.28H61.5484V0.0599997ZM67.0484 2H69.7084V13H67.0484V2ZM79.462 5.4H89.722V7.62H79.462V5.4ZM89.282 0.0599997H91.942V13H89.282V0.0599997ZM77.122 0.0599997H79.782V13H77.122V0.0599997ZM97.6727 7.6V10.78H107.653V13H95.0127V0.0599997H107.633V2.28H97.6727V5.5H105.833V7.6H97.6727ZM115.208 13V0.0599997H122.668C124.401 0.0599997 125.715 0.353333 126.608 0.939999C127.515 1.51333 127.968 2.37333 127.968 3.52C127.968 4.25333 127.788 4.83333 127.428 5.26C127.068 5.67333 126.555 5.98 125.888 6.18C125.235 6.38 124.461 6.50667 123.568 6.56L123.648 6.42C124.301 6.43333 124.915 6.48 125.488 6.56C126.075 6.64 126.588 6.78667 127.028 7C127.468 7.21333 127.815 7.51333 128.068 7.9C128.321 8.27333 128.448 8.76667 128.448 9.38C128.448 10.18 128.235 10.8467 127.808 11.38C127.381 11.9 126.788 12.2933 126.028 12.56C125.268 12.8267 124.388 12.9733 123.388 13H115.208ZM117.868 10.8H123.108C123.948 10.8 124.595 10.6667 125.048 10.4C125.501 10.12 125.728 9.68 125.728 9.08C125.728 8.64 125.595 8.32 125.328 8.12C125.061 7.92 124.708 7.8 124.268 7.76C123.828 7.70667 123.355 7.68 122.848 7.68H117.868V10.8ZM117.868 5.54H122.568C123.408 5.54 124.055 5.42 124.508 5.18C124.961 4.92667 125.188 4.5 125.188 3.9C125.188 3.3 124.961 2.88 124.508 2.64C124.055 2.38667 123.455 2.26 122.708 2.26H117.868V5.54ZM133.473 7.6V10.78H143.453V13H130.813V0.0599997H143.433V2.28H133.473V5.5H141.633V7.6H133.473ZM145.045 0.0599997H158.685V2.28H145.045V0.0599997ZM150.545 2H153.205V13H150.545V2ZM161.818 10.18V7.96H170.378V10.18H161.818ZM158.598 13L164.678 0.0599997H167.558L173.698 13H170.798L165.478 1.34H166.758L161.478 13H158.598Z" fill="white"/>
</svg>
