<svg width="72" height="54" viewBox="0 0 72 54" fill="none" xmlns="http://www.w3.org/2000/svg">
<g filter="url(#filter0_d_110_23)">
<path d="M20.54 33V20.06H29.32C30.32 20.06 31.1867 20.2 31.92 20.48C32.6667 20.7467 33.2467 21.1733 33.66 21.76C34.0733 22.3333 34.28 23.0733 34.28 23.98C34.28 24.5933 34.1733 25.1133 33.96 25.54C33.7467 25.9667 33.4467 26.3133 33.06 26.58C32.6867 26.8467 32.2533 27.0533 31.76 27.2C31.2667 27.3333 30.74 27.42 30.18 27.46L29.9 27.3C30.8333 27.3133 31.6 27.3933 32.2 27.54C32.8 27.6733 33.2467 27.9267 33.54 28.3C33.8467 28.66 34 29.2 34 29.92V33H31.34V30.1C31.34 29.6067 31.2533 29.2267 31.08 28.96C30.9067 28.68 30.5933 28.4867 30.14 28.38C29.7 28.2733 29.06 28.22 28.22 28.22H23.2V33H20.54ZM23.2 26.14H29.32C30.0667 26.14 30.6333 25.96 31.02 25.6C31.42 25.24 31.62 24.7533 31.62 24.14C31.62 23.5533 31.42 23.1067 31.02 22.8C30.6333 22.4933 30.0667 22.34 29.32 22.34H23.2V26.14ZM48.9434 27.28V20.06H51.6034V27.56C51.6034 28.4133 51.4768 29.16 51.2234 29.8C50.9834 30.44 50.6368 30.98 50.1834 31.42C49.7301 31.86 49.1968 32.22 48.5834 32.5C47.9834 32.7667 47.3234 32.96 46.6034 33.08C45.8968 33.2 45.1501 33.26 44.3634 33.26C43.5501 33.26 42.7768 33.2 42.0434 33.08C41.3101 32.96 40.6368 32.7667 40.0234 32.5C39.4234 32.22 38.9034 31.86 38.4634 31.42C38.0234 30.98 37.6768 30.44 37.4234 29.8C37.1834 29.16 37.0634 28.4133 37.0634 27.56V20.06H39.7234V27.28C39.7234 28.2933 39.9234 29.0667 40.3234 29.6C40.7234 30.12 41.2701 30.48 41.9634 30.68C42.6701 30.8667 43.4701 30.96 44.3634 30.96C45.2301 30.96 46.0034 30.8667 46.6834 30.68C47.3768 30.48 47.9234 30.12 48.3234 29.6C48.7368 29.0667 48.9434 28.2933 48.9434 27.28Z" fill="white"/>
</g>
<defs>
<filter id="filter0_d_110_23" x="0.540039" y="0.0595703" width="71.0635" height="53.2002" filterUnits="userSpaceOnUse" color-interpolation-filters="sRGB">
<feFlood flood-opacity="0" result="BackgroundImageFix"/>
<feColorMatrix in="SourceAlpha" type="matrix" values="0 0 0 0 0 0 0 0 0 0 0 0 0 0 0 0 0 0 127 0" result="hardAlpha"/>
<feOffset/>
<feGaussianBlur stdDeviation="10"/>
<feComposite in2="hardAlpha" operator="out"/>
<feColorMatrix type="matrix" values="0 0 0 0 1 0 0 0 0 1 0 0 0 0 1 0 0 0 0.7 0"/>
<feBlend mode="normal" in2="BackgroundImageFix" result="effect1_dropShadow_110_23"/>
<feBlend mode="normal" in="SourceGraphic" in2="effect1_dropShadow_110_23" result="shape"/>
</filter>
</defs>
</svg>
