<svg width="208" height="50" viewBox="0 0 208 50" fill="none" xmlns="http://www.w3.org/2000/svg">
<rect width="208" height="50" fill="#FF8E3D"/>
<path d="M19.84 26.8V24.68H25.76C26.4667 24.68 27.0267 24.4933 27.44 24.12C27.8533 23.7333 28.06 23.2 28.06 22.52C28.06 21.8133 27.8533 21.2733 27.44 20.9C27.0267 20.5267 26.4667 20.34 25.76 20.34H20.16V31H17.5V18.06H25.52C26.24 18.06 26.9133 18.1467 27.54 18.32C28.18 18.4933 28.7333 18.76 29.2 19.12C29.68 19.48 30.0533 19.94 30.32 20.5C30.5867 21.06 30.72 21.7333 30.72 22.52C30.72 23.2933 30.5867 23.9533 30.32 24.5C30.0533 25.0467 29.68 25.4933 29.2 25.84C28.7333 26.1733 28.18 26.42 27.54 26.58C26.9133 26.7267 26.24 26.8 25.52 26.8H19.84ZM35.8836 18.06V28.78H44.4836V31H33.2236V18.06H35.8836ZM48.9741 28.18V25.96H57.5341V28.18H48.9741ZM45.7541 31L51.8341 18.06H54.7141L60.8541 31H57.9541L52.6341 19.34H53.9141L48.6341 31H45.7541ZM73.7403 18.06L68.0603 26.92V31H65.3803V26.92L59.7003 18.06H62.7803L67.5603 25.8H65.9603L70.6603 18.06H73.7403ZM78.5484 18.06H92.1884V20.28H78.5484V18.06ZM84.0484 20H86.7084V31H84.0484V20ZM96.462 23.4H106.722V25.62H96.462V23.4ZM106.282 18.06H108.942V31H106.282V18.06ZM94.122 18.06H96.782V31H94.122V18.06ZM114.673 25.6V28.78H124.653V31H112.013V18.06H124.633V20.28H114.673V23.5H122.833V25.6H114.673ZM132.208 31V18.06H139.668C141.401 18.06 142.715 18.3533 143.608 18.94C144.515 19.5133 144.968 20.3733 144.968 21.52C144.968 22.2533 144.788 22.8333 144.428 23.26C144.068 23.6733 143.555 23.98 142.888 24.18C142.235 24.38 141.461 24.5067 140.568 24.56L140.648 24.42C141.301 24.4333 141.915 24.48 142.488 24.56C143.075 24.64 143.588 24.7867 144.028 25C144.468 25.2133 144.815 25.5133 145.068 25.9C145.321 26.2733 145.448 26.7667 145.448 27.38C145.448 28.18 145.235 28.8467 144.808 29.38C144.381 29.9 143.788 30.2933 143.028 30.56C142.268 30.8267 141.388 30.9733 140.388 31H132.208ZM134.868 28.8H140.108C140.948 28.8 141.595 28.6667 142.048 28.4C142.501 28.12 142.728 27.68 142.728 27.08C142.728 26.64 142.595 26.32 142.328 26.12C142.061 25.92 141.708 25.8 141.268 25.76C140.828 25.7067 140.355 25.68 139.848 25.68H134.868V28.8ZM134.868 23.54H139.568C140.408 23.54 141.055 23.42 141.508 23.18C141.961 22.9267 142.188 22.5 142.188 21.9C142.188 21.3 141.961 20.88 141.508 20.64C141.055 20.3867 140.455 20.26 139.708 20.26H134.868V23.54ZM150.473 25.6V28.78H160.453V31H147.813V18.06H160.433V20.28H150.473V23.5H158.633V25.6H150.473ZM162.045 18.06H175.685V20.28H162.045V18.06ZM167.545 20H170.205V31H167.545V20ZM178.818 28.18V25.96H187.378V28.18H178.818ZM175.598 31L181.678 18.06H184.558L190.698 31H187.798L182.478 19.34H183.758L178.478 31H175.598Z" fill="white"/>
</svg>
