<svg width="70" height="15" viewBox="0 0 70 15" fill="none" xmlns="http://www.w3.org/2000/svg">
<path d="M7.98 14.26C6.78 14.26 5.69333 14.12 4.72 13.84C3.76 13.56 2.92667 13.14 2.22 12.58C1.52667 12.02 0.993333 11.3267 0.62 10.5C0.246667 9.67333 0.0600001 8.72 0.0600001 7.64C0.0600001 6.54667 0.253333 5.58 0.64 4.74C1.04 3.88667 1.6 3.16667 2.32 2.58C3.05333 1.99333 3.92 1.55333 4.92 1.26C5.93333 0.953333 7.05333 0.799999 8.28 0.799999C9.73333 0.799999 10.9867 1.00667 12.04 1.42C13.0933 1.82 13.92 2.38667 14.52 3.12C15.1333 3.85333 15.48 4.72667 15.56 5.74H13C12.8267 5.20667 12.54 4.74667 12.14 4.36C11.7533 3.96 11.24 3.65333 10.6 3.44C9.96 3.21333 9.18667 3.1 8.28 3.1C7.12 3.1 6.12667 3.28667 5.3 3.66C4.48667 4.03333 3.86667 4.56 3.44 5.24C3.01333 5.92 2.8 6.72 2.8 7.64C2.8 8.53333 2.98667 9.30667 3.36 9.96C3.73333 10.6 4.30667 11.0933 5.08 11.44C5.86667 11.7867 6.86667 11.96 8.08 11.96C9.01333 11.96 9.83333 11.84 10.54 11.6C11.26 11.3467 11.86 11.0133 12.34 10.6C12.82 10.1733 13.16 9.7 13.36 9.18L14.4 8.8C14.2267 10.52 13.5733 11.86 12.44 12.82C11.32 13.78 9.83333 14.26 7.98 14.26ZM13.72 14C13.72 13.5867 13.7467 13.1133 13.8 12.58C13.8533 12.0333 13.92 11.4867 14 10.94C14.08 10.38 14.1533 9.86667 14.22 9.4H8.3V7.7H16.02V14H13.72ZM20.8413 11.18V8.96H29.4013V11.18H20.8413ZM17.6213 14L23.7013 1.06H26.5813L32.7213 14H29.8213L24.5013 2.34H25.7813L20.5013 14H17.6213ZM44.6625 12.68H43.4025L50.8425 1.06H53.5025V14H50.8425V4.6L51.4825 4.78L45.5425 14H42.5625L36.6225 4.82L37.2625 4.64V14H34.6025V1.06H37.2625L44.6625 12.68ZM59.2352 8.6V11.78H69.2152V14H56.5752V1.06H69.1952V3.28H59.2352V6.5H67.3952V8.6H59.2352Z" fill="white"/>
</svg>
